HIERARCHY
ROOT root
{
	OFFSET 0.000000 0.000000 0.000000
	CHANNELS 6 Xposition Yposition Zposition Zrotation Yrotation Xrotation
	JOINT lhip
	{
		OFFSET 0.058581 -0.082280 -0.017664
		CHANNELS 3 Zrotation Yrotation Xrotation
		JOINT lknee
		{
			OFFSET 0.043451 -0.386469 0.008037
			CHANNELS 3 Zrotation Yrotation Xrotation
			JOINT lankle
			{
				OFFSET -0.014790 -0.426874 -0.037428
				CHANNELS 3 Zrotation Yrotation Xrotation
				JOINT ltoe
				{
					OFFSET 0.041054 -0.060286 0.122042
					CHANNELS 3 Zrotation Yrotation Xrotation
					End Site
					{
						OFFSET 0.000000 0.000000 0.000000
					}
				}
			}
		}
	}
	JOINT rhip
	{
		OFFSET -0.060310 -0.090513 -0.013543
		CHANNELS 3 Zrotation Yrotation Xrotation
		JOINT rknee
		{
			OFFSET -0.043257 -0.383688 -0.004843
			CHANNELS 3 Zrotation Yrotation Xrotation
			JOINT rankle
			{
				OFFSET 0.019056 -0.420046 -0.034562
				CHANNELS 3 Zrotation Yrotation Xrotation
				JOINT rtoe
				{
					OFFSET -0.034840 -0.062106 0.130323
					CHANNELS 3 Zrotation Yrotation Xrotation
					End Site
					{
						OFFSET 0.000000 0.000000 0.000000
					}
				}
			}
		}
	}
	JOINT lowerback
	{
		OFFSET 0.004439 0.124404 -0.038385
		CHANNELS 3 Zrotation Yrotation Xrotation
		JOINT upperback
		{
			OFFSET 0.004488 0.137956 0.026820
			CHANNELS 3 Zrotation Yrotation Xrotation
			JOINT chest
			{
				OFFSET -0.002265 0.056032 0.002855
				CHANNELS 3 Zrotation Yrotation Xrotation
				JOINT lowerneck
				{
					OFFSET -0.013390 0.211636 -0.033468
					CHANNELS 3 Zrotation Yrotation Xrotation
					JOINT upperneck
					{
						OFFSET 0.010113 0.088937 0.050410
						CHANNELS 3 Zrotation Yrotation Xrotation
						End Site
						{
							OFFSET 0.000000 0.000000 0.000000
						}
					}
				}
				JOINT lclavicle
				{
					OFFSET 0.071702 0.114000 -0.018898
					CHANNELS 3 Zrotation Yrotation Xrotation
					JOINT lshoulder
					{
						OFFSET 0.122921 0.045205 -0.019046
						CHANNELS 3 Zrotation Yrotation Xrotation
						JOINT lelbow
						{
							OFFSET 0.255332 -0.015649 -0.022946
							CHANNELS 3 Zrotation Yrotation Xrotation
							JOINT lwrist
							{
								OFFSET 0.265709 0.012698 -0.007375
								CHANNELS 3 Zrotation Yrotation Xrotation
								End Site
								{
									OFFSET 0.000000 0.000000 0.000000
								}
							}
						}
					}
				}
				JOINT rclavicle
				{
					OFFSET -0.082954 0.112472 -0.023707
					CHANNELS 3 Zrotation Yrotation Xrotation
					JOINT rshoulder
					{
						OFFSET -0.113228 0.046853 -0.008472
						CHANNELS 3 Zrotation Yrotation Xrotation
						JOINT relbow
						{
							OFFSET -0.260127 -0.014369 -0.031269
							CHANNELS 3 Zrotation Yrotation Xrotation
							JOINT rwrist
							{
								OFFSET -0.269108 0.006794 -0.006027
								CHANNELS 3 Zrotation Yrotation Xrotation
								End Site
								{
									OFFSET 0.000000 0.000000 0.000000
								}
							}
						}
					}
				}
			}
		}
	}
}
MOTION
Frames: 6
Frame Time: 0.033333
-0.065927 0.255709 0.978641 -173.036569 6.736950 77.068369 12.942475 0.549369 9.229308 -6.414021 -16.989303 17.102025 -2.422466 -1.599763 -25.269399 0.000000 -0.000000 0.000000 3.433637 1.170931 6.734517 0.700069 11.220062 15.310052 2.832097 4.483314 -19.172675 0.000000 -0.000000 0.000000 -3.841892 3.425400 14.078774 0.407535 -0.023762 10.129459 0.982667 0.878808 1.855565 4.733306 1.445378 6.535221 7.118122 -6.005284 -0.090182 -18.925315 7.218570 7.883732 -61.533862 8.763539 0.911284 16.024921 -45.622228 6.367739 -6.854354 -12.666484 -17.895603 19.803808 2.403191 5.467246 59.088338 0.735444 5.729643 -15.783680 47.141091 6.418103 12.546919 7.921937 -10.687506 
-0.064564 0.251640 0.980067 -173.342710 6.154006 78.176870 12.249452 0.577699 8.224105 -6.141574 -16.554370 16.287136 -2.506141 -1.339509 -24.667413 0.000000 -0.000000 0.000000 2.978414 1.697307 5.172096 0.572404 11.281418 15.360443 2.955673 4.435760 -18.935718 0.000000 -0.000000 0.000000 -3.386424 3.309352 14.926523 0.452472 0.074570 10.134772 1.005039 0.926019 2.169670 4.400564 1.430646 6.157370 6.764987 -6.153858 -0.503413 -18.912556 7.182745 7.708428 -61.406817 8.734343 1.056772 16.032310 -45.532211 6.151025 -6.806264 -12.656193 -17.605970 19.757427 2.451190 5.345604 58.717880 0.912666 5.804920 -16.193014 47.265344 5.406000 11.619381 7.931771 -10.491634 
-0.062896 0.247744 0.981519 -173.585400 5.521059 79.369579 11.485398 0.495258 7.146390 -5.856550 -16.188162 15.439006 -2.567264 -0.980296 -24.034760 0.000000 -0.000000 0.000000 2.457568 2.152462 3.552147 0.445710 11.351805 15.384226 3.060485 4.337895 -18.675560 0.000000 -0.000000 0.000000 -2.831209 3.181120 15.827845 0.503986 0.198097 10.083670 1.046620 0.982337 2.486411 3.926726 1.278445 5.678706 6.470293 -6.348873 -0.890952 -18.850242 7.087786 7.550061 -61.250481 8.534427 1.297470 16.041371 -45.925723 5.725055 -6.470813 -12.730303 -17.763989 19.635941 2.541237 5.232670 58.352469 0.920684 5.898864 -16.412414 47.316411 4.720700 11.169602 7.922641 -10.105617 
-0.060964 0.244223 0.982960 -173.664033 4.864258 80.648547 10.627738 0.176748 5.936677 -5.518313 -15.830135 14.667800 -2.544826 -0.526076 -23.391292 0.000000 -0.000000 0.000000 1.886747 2.558654 1.938700 0.324783 11.369781 15.336392 3.156212 4.158938 -18.400396 0.000000 -0.000000 0.000000 -2.206611 3.011968 16.716469 0.602178 0.266411 10.021415 1.110851 1.015242 2.747221 3.350564 1.039915 5.185333 6.237026 -6.511547 -1.247776 -18.771583 6.906119 7.450219 -61.084408 8.186722 1.653405 16.125841 -46.711392 5.224316 -6.091938 -12.841214 -18.102896 19.467266 2.683217 5.182685 58.004432 0.838267 5.997655 -16.584312 47.248311 4.198304 11.304757 7.851740 -9.695596 
-0.058667 0.241213 0.984294 -173.564898 4.177964 82.099723 9.742133 -0.212223 4.496752 -5.137123 -15.464450 14.000293 -2.449553 -0.189606 -22.752100 0.000000 -0.000000 0.000000 1.275785 2.939043 0.183172 0.217685 11.309913 15.363792 3.213956 3.929955 -18.218670 0.000000 -0.000000 0.000000 -1.642222 2.779825 17.427665 0.777667 0.254183 9.945618 1.216418 0.982157 2.868856 2.732176 0.788432 4.820798 5.981601 -6.513931 -1.698196 -18.758094 6.681360 7.457867 -60.856020 7.797670 2.056782 16.382149 -47.854361 4.671327 -5.774275 -13.020840 -18.347790 19.317977 2.898808 5.215714 57.711101 0.731315 6.132815 -16.856286 46.970165 3.627056 11.848106 7.722006 -9.282168 
-0.055856 0.238891 0.985463 -173.422811 3.479961 83.716808 9.038235 -0.401971 2.883539 -4.893875 -15.051077 13.393918 -2.356457 -0.207227 -22.125044 0.000000 -0.000000 0.000000 0.659742 3.217491 -1.812617 0.141180 11.244565 15.594995 3.197156 3.793506 -18.094269 0.000000 -0.000000 0.000000 -1.178501 2.447057 17.959783 0.936345 0.205199 9.672816 1.311840 0.886377 2.865113 2.108898 0.568470 4.532995 5.687535 -6.260997 -2.096629 -18.853519 6.545318 7.549517 -60.485133 7.441172 2.322914 16.806113 -49.292806 4.059492 -5.615784 -13.324945 -18.451226 19.247140 3.100465 5.370017 57.521766 0.767623 6.257675 -17.065213 46.434759 3.286401 12.596297 7.557722 -8.654393 
